<?xml version="1.0" encoding="UTF-8"?>
<!DOCTYPE svg PUBLIC "-//W3C//DTD SVG 1.1//EN" "http://www.w3.org/Graphics/SVG/1.1/DTD/svg11.dtd">
<!-- Creator: CorelDRAW 2020 (64-Bit) -->
<svg xmlns="http://www.w3.org/2000/svg" xml:space="preserve" width="42.3332mm" height="42.3332mm" version="1.1" style="shape-rendering:geometricPrecision; text-rendering:geometricPrecision; image-rendering:optimizeQuality; fill-rule:evenodd; clip-rule:evenodd"
viewBox="0 0 4233.32 4233.32"
 xmlns:xlink="http://www.w3.org/1999/xlink"
 xmlns:xodm="http://www.corel.com/coreldraw/odm/2003">
 <defs>
  <style type="text/css">
   <![CDATA[
    .fil1 {fill:#FEFEFE}
    .fil0 {fill:#FFF212}
    .fil4 {fill:#0A8103}
    .fil2 {fill:#0EBE03}
    .fil3 {fill:#FFCC00}
    .fil5 {fill:#282829;fill-rule:nonzero}
   ]]>
  </style>
 </defs>
 <g id="Capa_x0020_1">
  <metadata id="CorelCorpID_0Corel-Layer"/>
  <ellipse class="fil0" cx="2116.66" cy="2116.65" rx="2036.14" ry="2068.95"/>
  <ellipse class="fil1" cx="2159.86" cy="2207.1" rx="1120.8" ry="1104.77"/>
  <path class="fil2" d="M4032.92 1732.59c-21.06,-151.87 -67.77,-296.78 -130.05,-435.3 -74.02,-164.66 -208.28,-380.23 -329.91,-494.44 -57.14,-53.65 -111.13,-105.25 -169.08,-158.55 -254.31,-215.74 -375.09,-321.04 -414.63,-319.57 -28.34,1.05 -29.99,38.5 18.41,74.61 39.13,29.19 105.82,64.75 162.34,122.07 211.77,214.76 501.45,574.79 537.99,689.18 187.63,424.28 208.75,949.01 27.22,1397.41 -40.55,100.16 -87.84,195.51 -145.91,282.89 -108.91,163.9 -245.86,315.02 -405.38,431.4 -45.27,33.03 -73.7,59.18 -124.83,90.3 -397.79,242.13 -1042.65,376.27 -1521.12,196.32 -263.87,-99.24 -463.17,-257.72 -613.76,-448.22 -89.64,-113.38 -177.52,-250.85 -234.54,-386.61 -698.34,-1662.71 909.66,-2808.86 2051.09,-2456.31 74.97,-17.24 -107.9,-89.04 -132.4,-96.08 -267.95,-76.92 -693.05,-74.19 -960.7,-4.77 -213.65,55.42 -501.39,183.21 -669.27,326.23 -76.7,65.35 -153.02,125.88 -208.93,198.53 -29.83,38.77 -64.42,63.19 -119.89,139.98 -328.56,454.8 -426.18,1035.3 -257.17,1579.87 327.23,1054.33 1487.57,1586.2 2512.01,1236.75 579.7,-197.75 939.85,-650.39 1091.8,-1237.68 51.64,-199.59 81.6,-524.85 36.71,-728.01z"/>
  <path class="fil2" d="M598.21 3400.79c890.6,1018.9 2183.24,842.07 3078.55,-7.86 80.87,-83.71 365.3,-478.19 103.82,-250.98l-230.12 249.27c-32.96,24.52 -36.9,34.16 -67.51,56.73 -34.27,25.28 -41.55,29.66 -71.41,53.29 -27.47,21.73 -38.53,24.47 -68.68,43.55 -98.38,62.28 -111.77,75.34 -236.78,136.72 -97.44,47.84 -235.95,97.84 -356.57,128.57 -501.73,127.83 -1165.3,54.11 -1584.98,-240.23 -162.05,-113.65 -281.84,-209.89 -414.23,-355.02 -10.77,-11.8 -20.15,-21.69 -32.24,-35.85 -21.47,-25.13 -29.44,-38.22 -55.2,-69.6 -311.98,-379.91 -476.84,-995.99 -403.54,-1505.54 28.67,-199.29 95.25,-383.84 169.1,-562.62 40.14,-71.68 53.34,-109.36 55.06,-131.72 9.2,-119.78 -187.19,341.49 -226.72,407.15 -260.75,687.16 -147.79,1524.42 341.45,2084.14z"/>
  <path class="fil2" d="M911.59 1031.74c14.48,20.22 34.94,12.89 57.64,-6.46 124.97,-106.52 244.25,-242.3 424.94,-333.95 377.41,-191.42 788.56,-230.04 1198.47,-110.19 606.95,177.46 1054.44,734.33 1081.06,1389.75 14.44,355.52 -240.07,900.95 -34.8,647.04 376.8,-768.32 43.23,-1814.3 -762.5,-2149.84 -466.26,-194.17 -997.42,-157.8 -1437.76,87.26 -152.01,84.59 -487.05,281.34 -527.05,476.39z"/>
  <path class="fil3" d="M1061.13 3106.8l194.66 200.65c2.04,0.56 4.59,1.79 5.86,2.42l41.64 27.64c89.9,70.58 189.96,124.16 295.07,166.25 225.38,90.26 510.99,134.04 702.44,108.26 277.83,-37.41 401.63,-172.35 224.11,-116.12 -227.14,71.95 -570.68,37.66 -777.11,-46.48 -320.27,-130.54 -603.18,-401.16 -737.86,-735.71 -30.08,-74.72 -54.06,-150.37 -68.13,-227.3 -26.39,-144.32 -31.13,-296.28 -5.77,-441.28 7.2,-41.16 8.92,-69.9 20.25,-113.07 88.12,-335.8 364.69,-741.53 714.56,-892.62 192.95,-83.32 381.9,-101.44 561.3,-77.17 106.78,14.45 225.09,42.72 325.94,86.05 1235.27,530.71 965.69,1977.93 170.78,2379.54 -28.28,67.8 160.1,-27.18 184.5,-40.13 149.64,-79.4 361.43,-320.05 454.21,-471.52 85.95,-140.31 174.2,-357.8 190.25,-521.43 7.34,-74.76 16.96,-146.74 9.36,-214.66 -4.06,-36.24 1.86,-67.24 -8.12,-137.16 -59.1,-414.07 -307.17,-776.07 -679.71,-980.79 -721.26,-396.35 -1619.13,-81.18 -1987.94,636.55 -208.7,406.13 -167.66,835.4 54.77,1229.17 20.36,36.05 107.96,156.92 114.94,178.91z"/>
  <path class="fil4" d="M2867.75 809.77c-182.56,-105.98 -385.65,-166.15 -592.18,-183.17 -370.31,-30.53 -749.07,96.38 -1051.21,315.71l-40.95 22.88 -206.03 199.88c-4.16,14.59 7.59,-7.19 -9.76,21.13l-107.73 146.87c-40.4,59.39 -66.8,110.27 -91.18,171.22 -71.61,178.98 -101.68,338.61 -127.73,516.35l-8.58 208.25c0.19,86.77 18.66,278.02 61.59,186.11l6.88 -250.76c4.91,-30.23 2.01,-37.43 6.67,-65.4 5.21,-31.31 6.84,-37.43 10.55,-65.58 3.42,-25.88 7.92,-33.09 14.14,-58.95 20.31,-84.39 20.7,-98.33 55.72,-196.07 27.31,-76.18 75.47,-174.84 124.05,-253.89 202.11,-328.85 595.44,-633.87 972.8,-694.23 145.7,-23.31 259.75,-34 405.93,-25.07 11.88,0.72 22.04,1.15 35.86,2.44 24.53,2.31 35.59,5.18 65.66,8.59 364.15,41.33 772.17,285.4 997.46,596.1 88.11,121.52 117.52,276.47 180.82,394.75 116.23,90.27 -5.1,-183.87 -30.37,-242.41 -89.55,-207.4 -120.99,-212.5 -202,-341.87l-261.88 -265.97 -208.53 -146.91z"/>
  <path class="fil4" d="M3254.03 2522.35c-102.58,298.34 -302.52,532.43 -584.07,681.09 -416.89,220.12 -945.4,154.45 -1299.87,-182.43 -192.28,-182.73 -287.16,-511.32 -307.08,-391.76 16.39,50.41 34.81,107.45 58.66,163.88 230.13,544.38 912.31,832.18 1455.14,618.1 350.28,-138.14 615.61,-433.33 724.01,-793.04 110.97,-740.34 2.85,-614.81 -46.79,-95.84z"/>
  <path class="fil5" d="M1081.04 1263.91c-1.76,23.37 -3.96,53.4 -6.62,90.05 -2.64,36.65 -5.28,74.69 -7.92,114.13 -2.65,39.43 -5.29,77.27 -7.94,113.52 -2.65,36.26 -4.41,65.2 -5.29,86.81 -3.53,26.11 -7.27,51.87 -11.24,77.28 -3.96,25.4 -6.83,50.99 -8.59,76.74 -4.41,43.75 -7.94,87.53 -10.58,131.33 -2.65,43.8 -6.18,87.97 -10.59,132.53 -0.87,16.05 -3.52,32.85 -7.92,50.41 -14.99,43.49 -45.41,72.63 -91.25,87.37 -22.91,6.98 -43.64,8.56 -62.15,4.73 -18.51,-3.83 -32.61,-13.5 -42.31,-29.02 -18.51,-31.22 -31.29,-66.76 -38.35,-106.63 -10.58,-67.74 -16.96,-133.55 -19.17,-197.4 -2.2,-63.87 -0.66,-127.3 4.63,-190.28 5.28,-62.98 14.1,-126.28 26.45,-189.89 12.33,-63.6 27.76,-129.02 46.28,-196.25 -11.47,2.3 -21.39,4.69 -29.76,7.17 -8.37,2.47 -16.97,3.79 -25.78,3.97 -36.15,6.46 -71.62,12.99 -106.45,19.57 -34.82,6.59 -69.42,12.54 -103.81,17.85 -3.52,0.71 -7.05,1.42 -10.57,2.12 -3.53,0.71 -7.05,1.02 -10.58,0.93 -23.8,0.81 -42.75,-4.52 -56.87,-15.98 -14.1,-11.46 -21.15,-27.51 -21.15,-48.15 -0.88,-18.09 4.85,-35.71 17.19,-52.87 12.35,-17.16 29.97,-30.03 52.9,-38.6 65.23,-26.58 129.14,-51.31 191.73,-74.19 67.01,-23.76 133.34,-47.39 199.01,-70.88 65.68,-23.5 131.57,-45.45 197.69,-65.86 42.31,-13.25 84.85,-23.96 127.61,-32.15 42.76,-8.18 85.29,-15.72 127.6,-22.62 36.15,-5.66 65.46,-1.02 87.94,13.92 22.47,14.94 35.92,35.86 40.33,62.76 1.76,29.81 -6.61,57.49 -25.13,83.04 -18.51,25.55 -45.84,46.31 -81.98,62.3 -7.93,4.77 -15.65,8.49 -23.14,11.19 -7.5,2.69 -14.77,5.14 -21.82,7.35 -39.67,11.13 -78.68,21.94 -117.03,32.41 -38.34,10.47 -77.35,20.88 -117.03,31.22 -7.05,2.2 -13.65,4.13 -19.83,5.77 -6.17,1.63 -12.33,3.06 -18.51,4.3z"/>
  <path id="1" class="fil5" d="M1388.24 1851.73c8.88,9.65 19.03,14.48 30.45,14.47 11.43,-0.01 23.18,-2.94 35.24,-8.79 17.13,-10.86 34.59,-21.65 52.35,-32.36 17.78,-10.71 35.24,-21.51 52.37,-32.37 3.18,-1.78 6.51,-4.31 9.99,-7.58 3.5,-3.27 6.83,-6.08 10,-8.43 12.06,-6.99 23.65,-11.18 34.75,-12.55 11.11,-1.36 20.79,-0.17 29.04,3.61 8.25,3.77 14.6,9.79 19.04,18.04 4.45,8.26 5.71,18.29 3.81,30.1 -0.63,9.85 -3.49,20.57 -8.57,32.16 -5.07,11.59 -11.1,22.09 -18.09,31.49 -28.56,35.45 -60.77,66.06 -96.63,91.84 -35.86,25.77 -74.74,46.29 -116.63,61.55 -32.37,11.07 -62.52,14.69 -90.45,10.86 -27.92,-3.83 -53.94,-12.76 -78.06,-26.78 -28.56,-15.42 -51.1,-35.2 -67.6,-59.32 -16.5,-24.13 -28.24,-52.06 -35.22,-83.82 -7.62,-37.91 -8.88,-76.38 -3.81,-115.41 5.08,-39.03 18.72,-79.06 40.94,-120.1 11.43,-22.87 26.5,-44.48 45.22,-64.8 18.72,-20.34 39.67,-38.26 62.84,-53.77 23.16,-15.5 48.23,-28.1 75.2,-37.81 26.99,-9.69 54.44,-15.35 82.36,-16.95 29.19,-1.84 55.06,1.97 77.6,11.45 22.53,9.49 39.98,23.12 52.35,40.94 12.38,17.81 19.2,38.73 20.48,62.76 1.26,24.04 -4.13,49.85 -16.19,77.42 -16.5,37.6 -39.03,71.13 -67.59,100.58 -28.57,29.45 -62.53,54.71 -101.87,75.74 -5.09,2.17 -10.32,4.64 -15.71,7.44 -5.4,2.79 -11.27,6.26 -17.61,10.39zm-58.08 -101.53c30.46,-6.11 55.69,-17.17 75.69,-33.18 19.98,-16.02 37.92,-34.76 53.79,-56.23 12.69,-16.27 20.15,-32.19 22.37,-47.79 2.22,-15.59 -0.79,-26.56 -9.05,-32.91 -8.88,-5.08 -22.69,-4.59 -41.41,1.44 -18.72,6.05 -35.39,16.54 -49.99,31.47 -20.94,20.2 -34.74,41.55 -41.4,64.04 -6.67,22.49 -10,46.87 -10,73.16z"/>
  <path id="2" class="fil5" d="M2110.83 1368.1c5.08,-7.31 9.53,-14.06 13.34,-20.25 3.8,-6.2 8.25,-12.09 13.33,-17.68 27.92,-37.61 62.51,-54.55 103.76,-50.82 20.32,1.06 35.71,7.26 46.19,18.6 10.47,11.33 16.65,25.95 18.56,43.86 1.9,19.63 2.06,39.31 0.48,59.06 -1.59,19.75 -4.61,39.79 -9.05,60.12 -12.06,49.28 -23.64,98.34 -34.75,147.16 -11.11,48.81 -21.1,97.54 -29.99,146.19 -5.08,25.6 -7.94,50.76 -8.57,75.45 -0.63,24.71 -1.9,49.83 -3.81,75.37 -0.63,6.41 -1.11,12.79 -1.42,19.14 -0.32,6.36 -1.75,12.93 -4.29,19.72 -3.81,17.35 -11.27,31.84 -22.37,43.5 -11.11,11.67 -24.6,20.22 -40.46,25.7 -15.87,4.9 -31.26,5.41 -46.18,1.54 -14.92,-3.86 -25.55,-12.01 -31.9,-24.46 -13.96,-26.92 -23.48,-56.45 -28.56,-88.58 -6.98,-39.76 -9.36,-80.43 -7.14,-122.04 2.22,-41.59 5.88,-83.77 10.95,-126.51 0.63,-2.99 0.96,-6.06 0.96,-9.2 0,-3.15 0.31,-7.92 0.95,-14.34 -5.08,6.16 -9.05,11.25 -11.9,15.25 -2.86,4 -5.24,7.62 -7.14,10.86 -12.69,17.99 -25.23,35.93 -37.61,53.85 -12.37,17.91 -25.55,35.7 -39.51,53.36 -7.62,9.54 -16.19,18.26 -25.71,26.17 -9.51,7.91 -19.35,15.17 -29.51,21.78 -24.12,16.27 -48.08,24.51 -71.88,24.71 -23.8,0.21 -44.9,-7 -63.31,-21.6 -19.05,-17.33 -31.89,-37.75 -38.56,-61.28 -6.66,-23.53 -8.72,-48.69 -6.19,-75.49 3.81,-38.49 12.22,-76.05 25.24,-112.67 13,-36.61 31.26,-72.71 54.74,-108.3 17.13,-26.29 38.08,-51.07 62.83,-74.33 33.01,-28.91 67.6,-46.71 103.78,-53.4 36.17,-6.69 70.45,-1.27 102.82,16.24 7.62,3.05 14.44,6.68 20.46,10.9 6.03,4.22 13.17,8.36 21.42,12.42zm-245.63 340.79c10.79,-8.46 23.33,-20.68 37.61,-36.7 14.28,-16.01 28.73,-33.77 43.32,-53.27 14.6,-19.51 28.88,-40.09 42.85,-61.75 13.96,-21.66 26.34,-42.45 37.12,-62.32 -8.88,-5.08 -19.36,-10.13 -31.41,-15.14 -14.61,-6.79 -26.34,-9.14 -35.23,-7.08 -8.89,2.07 -19.04,10.83 -30.47,26.26 -24.75,33.55 -42.05,67.6 -51.89,102.15 -9.83,34.55 -13.8,70.51 -11.9,107.85z"/>
  <path id="3" class="fil5" d="M2721.1 1603.2c-4.44,6.61 -8.25,11.95 -11.42,16.02 -3.18,4.06 -6.35,8.7 -9.53,13.91 -6.97,10.55 -13.64,20.88 -19.99,31.02 -6.35,10.13 -13.32,20.25 -20.94,30.35 -17.14,21.16 -36.02,38.09 -56.65,50.8 -20.62,12.71 -41.58,21.2 -62.84,25.47 -21.25,4.26 -41.88,3.97 -61.88,-0.88 -19.99,-4.85 -37.92,-14.54 -53.79,-29.08 -10.15,-7.67 -19.2,-17 -27.13,-27.98 -7.94,-10.99 -14.12,-22.04 -18.56,-33.15 -17.78,-37.59 -26.99,-77.33 -27.62,-119.21 -0.63,-41.88 5.4,-85.25 18.09,-130.1 2.54,-9.08 6.03,-18.07 10.47,-26.96 4.44,-8.89 9.53,-17.34 15.23,-25.34 12.7,-17.99 28.1,-31.51 46.19,-40.57 18.08,-9.06 35.7,-12.73 52.83,-11.03 19.04,0.76 34.59,6.49 46.65,17.22 12.06,10.73 19.04,25.05 20.95,42.96 0.63,26.16 0.31,51.81 -0.95,76.92 -1.28,25.13 -1.28,50.14 0,75.03 1.26,31.18 6.18,49.77 14.75,55.77 8.56,5.99 19.36,3.55 32.37,-7.35 13.02,-10.9 27.61,-28.4 43.8,-52.52 16.17,-24.1 32.21,-50.47 48.08,-79.09 15.86,-28.62 31.09,-57.68 45.69,-87.19 14.6,-29.51 26.97,-55.28 37.13,-77.33 8.89,-18.92 20,-34.44 33.33,-46.55 13.32,-12.11 26.97,-19.99 40.94,-23.65 13.95,-3.65 27.45,-2.36 40.46,3.89 13,6.26 23.64,18.55 31.89,36.9 1.27,7.75 2.38,16.1 3.33,25.06 0.96,8.95 0.16,18.26 -2.37,27.9 -5.09,37.04 -10.17,73.49 -15.24,109.38 -5.09,35.89 -10.16,72.06 -15.23,108.52 -3.81,28.77 -4.92,55.42 -3.34,79.98 1.59,24.54 9.04,47.19 22.38,67.96 6.97,13.46 9.67,26.49 8.08,39.1 -1.57,12.6 -8.08,24.91 -19.51,36.92 -11.42,12.58 -24.75,20.68 -39.98,24.31 -15.24,3.63 -31.11,2.81 -47.61,-2.45 -18.41,-7.17 -32.84,-17.42 -43.31,-30.75 -10.47,-13.33 -19.05,-28.05 -25.71,-44.14 -6.66,-16.1 -12.06,-32.88 -16.19,-50.34 -4.12,-17.47 -8.4,-34.04 -12.85,-49.73z"/>
  <path id="4" class="fil5" d="M3219.03 1484.45c8.89,9.65 19.04,14.47 30.46,14.47 11.43,-0.01 23.18,-2.94 35.23,-8.79 17.14,-10.86 34.59,-21.66 52.36,-32.36 17.78,-10.72 35.23,-21.51 52.37,-32.38 3.17,-1.77 6.5,-4.3 9.99,-7.57 3.5,-3.27 6.83,-6.08 9.99,-8.44 12.06,-6.98 23.66,-11.17 34.76,-12.54 11.1,-1.37 20.79,-0.17 29.04,3.61 8.25,3.77 14.6,9.79 19.04,18.04 4.44,8.26 5.71,18.29 3.81,30.1 -0.63,9.85 -3.5,20.56 -8.57,32.16 -5.08,11.59 -11.11,22.09 -18.09,31.49 -28.56,35.45 -60.77,66.06 -96.63,91.84 -35.86,25.77 -74.74,46.29 -116.64,61.54 -32.36,11.08 -62.51,14.7 -90.44,10.87 -27.93,-3.83 -53.94,-12.76 -78.06,-26.78 -28.56,-15.42 -51.1,-35.2 -67.6,-59.32 -16.5,-24.13 -28.24,-52.06 -35.22,-83.82 -7.62,-37.91 -8.89,-76.38 -3.81,-115.41 5.07,-39.03 18.72,-79.06 40.94,-120.1 11.42,-22.87 26.49,-44.48 45.21,-64.8 18.73,-20.34 39.68,-38.26 62.84,-53.77 23.16,-15.51 48.24,-28.11 75.21,-37.81 26.98,-9.69 54.43,-15.35 82.36,-16.95 29.19,-1.85 55.05,1.97 77.59,11.44 22.53,9.49 39.99,23.13 52.36,40.95 12.38,17.81 19.2,38.73 20.48,62.76 1.26,24.04 -4.14,49.85 -16.19,77.42 -16.5,37.6 -39.04,71.13 -67.59,100.58 -28.58,29.45 -62.53,54.7 -101.87,75.74 -5.09,2.17 -10.32,4.64 -15.72,7.44 -5.39,2.79 -11.27,6.26 -17.61,10.39zm-58.07 -101.53c30.46,-6.11 55.69,-17.17 75.68,-33.18 19.99,-16.02 37.92,-34.76 53.79,-56.23 12.69,-16.27 20.16,-32.19 22.38,-47.79 2.22,-15.6 -0.79,-26.56 -9.05,-32.91 -8.89,-5.08 -22.69,-4.59 -41.41,1.44 -18.72,6.05 -35.39,16.54 -49.99,31.47 -20.94,20.2 -34.75,41.55 -41.41,64.04 -6.66,22.48 -9.99,46.87 -9.99,73.16z"/>
  <path class="fil5" d="M1596.8 3056.72c-15.27,38.54 -33.01,76.53 -53.22,113.98 -20.22,37.44 -44.69,72.49 -73.44,105.16 -26.05,31.15 -53.45,57.22 -82.19,78.2 -28.75,21 -57.94,37.15 -87.58,48.46 -29.65,11.32 -59.29,17.69 -88.93,19.12 -29.65,1.44 -57.94,-2.38 -84.89,-11.44 -40.42,-13.16 -73.89,-38.47 -100.38,-75.93 -26.5,-37.47 -47.61,-81.79 -63.33,-132.97 -15.72,-51.17 -26.28,-107.13 -31.67,-167.87 -5.39,-60.74 -7.18,-121.64 -5.39,-182.68 1.8,-61.05 6.96,-119.5 15.5,-175.37 8.53,-55.86 19.09,-105 31.66,-147.41 14.38,-47.33 34.14,-95.89 59.29,-145.7 26.95,-52.02 59.73,-97.29 98.36,-135.82 38.63,-38.55 85.34,-66.81 140.13,-84.81 51.2,-15.39 98.14,-18.55 140.81,-9.52 42.67,9.05 81.97,27.41 117.9,55.06 28.74,22.13 52.55,48.54 71.41,79.23 18.86,30.69 34.58,64.8 47.16,102.33 31.44,105.04 41.55,213.88 30.32,326.5 -11.23,112.63 -38.4,226.45 -81.52,341.48zm-384.02 -621.69c11.68,10.78 17.52,23.58 17.52,38.4 0,14.83 -4.94,29.66 -14.82,44.51 -23.36,39.51 -40.2,80.22 -50.53,122.13 -10.33,41.89 -17.74,84.03 -22.23,126.38 -4.49,31.58 -6.51,62.8 -6.07,93.69 0.45,30.9 -0.22,62.26 -2.02,94.12 -0.9,32.54 1.35,63.91 6.74,94.11 5.39,30.2 14.82,58.12 28.3,83.76 4.49,7.96 9.65,15.97 15.49,24.06 5.84,8.09 12.8,14.35 20.89,18.77 21.56,21.09 44.01,16.81 67.37,-12.81 9.88,-11.26 18.19,-22.83 24.92,-34.71 6.74,-11.88 13.7,-24.03 20.89,-36.47 44.02,-95.47 72.09,-189.06 84.21,-280.78 12.13,-91.73 9.66,-182.79 -7.41,-273.18 -4.49,-25.01 -11.45,-48.78 -20.88,-71.32 -9.43,-22.53 -23.13,-42.06 -41.1,-58.58 -19.76,-16.11 -38.4,-22.15 -55.92,-18.12 -17.51,4.03 -39.3,19.38 -65.35,46.04z"/>
  <path id="1" class="fil5" d="M2094.96 2811.45c-29.75,40.48 -54.49,82.24 -74.21,125.25 -19.73,43.03 -36.06,87.38 -48.99,133.03 -5.18,15.42 -9.87,30.41 -14.07,44.96 -4.21,14.55 -9.54,29.36 -16.01,44.43 -7.76,16.66 -17.62,30.73 -29.59,42.22 -11.96,11.49 -24.74,19.6 -38.32,24.35 -13.58,4.74 -27.16,5.92 -40.74,3.56 -13.58,-2.38 -25.87,-8.77 -36.87,-19.17 -9.05,-10.85 -16.98,-22.93 -23.77,-36.24 -6.79,-13.31 -12.12,-26.96 -16,-40.94 -14.88,-58.03 -21.35,-117.82 -19.41,-179.37 1.94,-61.57 10.03,-124.71 24.26,-189.43 3.88,-21.59 8.73,-43.24 14.55,-64.96 5.82,-21.71 12.29,-43.73 19.4,-66.06 3.24,-11.1 7.6,-21.8 13.1,-32.12 5.5,-10.32 11.16,-20.36 16.98,-30.11 10.99,-17.4 24.41,-30.36 40.26,-38.85 15.84,-8.5 32.17,-12.1 48.99,-10.79 18.11,1 31.37,7.17 39.77,18.49 8.41,11.33 13.59,25.17 15.53,41.54 1.29,16.51 1.77,33.06 1.45,49.62 -0.32,16.57 -0.48,33.27 -0.48,50.08l0 57.24c5.17,-6.36 9.86,-11.65 14.06,-15.85 4.21,-4.21 8.25,-8.05 12.13,-11.52 18.75,-16.61 36.86,-33.72 54.33,-51.32 17.46,-17.6 35.89,-33.16 55.29,-46.68 37.52,-25.45 73.9,-37.22 109.14,-35.31 35.25,1.91 65.16,16.53 89.74,43.85 12.29,12.7 22.48,27.17 30.56,43.42 8.08,16.25 14.71,33.8 19.89,52.66 5.17,19.5 9.38,41.33 12.61,65.49 3.23,24.15 5.33,48.9 6.3,74.22 0.97,25.32 0.97,50.87 0,76.64 -0.97,25.77 -2.42,49.54 -4.36,71.34 -1.29,10.65 -4.04,21.79 -8.25,33.43 -4.2,11.63 -8.89,22.57 -14.06,32.82 -7.12,13.28 -15.85,23.86 -26.2,31.74 -10.35,7.88 -21.02,13.08 -32.01,15.61 -11,2.54 -21.67,2.08 -32.02,-1.36 -10.34,-3.43 -19.08,-10.15 -26.19,-20.16 -9.05,-10.85 -14.55,-23.49 -16.49,-37.92 -1.94,-14.43 -3.24,-29.65 -3.88,-45.68 -1.3,-13.28 -2.59,-28.5 -3.88,-45.66 -1.3,-17.16 -2.59,-34.66 -3.88,-52.47 -1.3,-17.81 -2.59,-35.29 -3.88,-52.47 -1.3,-17.16 -2.59,-32.38 -3.88,-45.66 0.64,-22.79 -2.11,-38.97 -8.25,-48.56 -6.14,-9.57 -14.07,-13.74 -23.77,-12.47 -9.7,1.26 -20.69,6.86 -32.98,16.81 -12.29,9.94 -24.26,22.72 -35.9,38.33z"/>
  <path id="2" class="fil5" d="M2808.97 2827.54c-13.58,19.3 -26.19,36.91 -37.83,52.85 -11.64,15.94 -23.28,30.74 -34.93,44.42 -12.28,13.82 -24.57,27.49 -36.86,40.98 -12.29,13.5 -25.55,25.45 -39.78,35.84 -20.05,14.96 -40.26,25.43 -60.63,31.42 -20.37,5.98 -39.61,7.82 -57.72,5.53 -18.11,-2.31 -34.77,-8.66 -49.96,-19.06 -15.2,-10.42 -27.65,-24.85 -37.35,-43.31 -11,-20.1 -17.95,-41.62 -20.86,-64.56 -2.91,-22.93 -2.75,-46.74 0.48,-71.42 5.82,-47.25 17.95,-92.41 36.38,-135.46 18.44,-43.04 44.14,-83.89 77.13,-122.52 34.92,-41.03 71.95,-70.25 111.08,-87.66 39.13,-17.42 81.33,-20.35 126.6,-8.78 1.94,0.21 3.88,0.08 5.82,-0.37 1.94,-0.44 4.53,-0.39 7.76,0.16 1.3,-53.33 0.33,-105.82 -2.91,-157.46 -3.23,-51.65 -1.29,-104.48 5.82,-158.5 2.59,-18.71 8.09,-36.15 16.49,-52.31 8.41,-16.17 18.92,-30.06 31.53,-41.7 12.62,-11.63 26.84,-20.73 42.69,-27.28 15.85,-6.56 32.18,-9.83 48.99,-9.82 23.93,0.31 43.82,8.18 59.66,23.62 15.85,15.42 23.13,36.54 21.83,63.36 -5.17,56.16 -11.8,112.34 -19.89,168.53 -8.08,56.19 -16.16,112.38 -24.25,168.56 -8.08,56.19 -15.36,112.36 -21.83,168.5 -6.46,56.13 -10.67,112.24 -12.61,168.31 -1.29,19.7 -2.59,39.23 -3.88,58.61 -1.29,19.38 -2.59,38.6 -3.88,57.64 -1.29,11.94 -4.2,23.29 -8.73,34.03 -4.53,12.04 -10.51,22.14 -17.95,30.33 -7.44,8.18 -17.3,13.68 -29.59,16.51 -25.87,5.95 -42.68,-2.14 -50.44,-24.28 -3.88,-12.05 -6.79,-24.64 -8.73,-37.77 -1.94,-13.13 -3.56,-26.34 -4.86,-39.62 -1.94,-9.26 -3.23,-19.31 -3.88,-30.16 -0.64,-10.84 -1.61,-23.23 -2.91,-37.16zm-48.5 -149.88c-33.63,-33.65 -62.41,-33.49 -86.34,0.47 -19.41,24.52 -33.15,50.16 -41.23,76.92 -8.09,26.76 -12.78,55.81 -14.07,87.15 29.1,-26.75 54.49,-53.77 76.15,-81.07 21.67,-27.3 43.5,-55.12 65.49,-83.47z"/>
  <path id="3" class="fil5" d="M3350.31 2754.34c-7.76,10.19 -15.04,20.12 -21.83,29.76 -6.79,9.65 -14.39,18.67 -22.8,27.08 -10.99,11.58 -22.15,23.69 -33.47,36.32 -11.32,12.63 -23.44,23.99 -36.38,34.09 -31.04,23.95 -62.57,36.23 -94.59,36.8 -32.01,0.58 -59.66,-10.35 -82.94,-32.8 -14.88,-14.04 -25.87,-31.07 -32.99,-51.1 -7.11,-20.03 -10.67,-41.52 -10.67,-64.48 0,-22.96 3.72,-46.29 11.16,-69.99 7.44,-23.71 18.59,-46.65 33.47,-68.83 30.4,-42.57 64.84,-75.72 103.32,-99.45 38.48,-23.74 80.68,-40.24 126.6,-49.51 9.05,-2.09 18.11,-3.53 27.16,-4.32 9.06,-0.79 18.11,-1.9 27.17,-3.34 1.94,-23.74 3.39,-46.22 4.36,-67.46 0.97,-21.25 -1.45,-37.5 -7.27,-48.77 -5.82,-11.28 -16.17,-15.69 -31.05,-13.23 -14.87,2.45 -36.54,15.37 -65,38.73 -22.63,17.5 -43.49,36.2 -62.57,56.12 -19.08,19.92 -36.7,42.08 -52.87,66.49 -2.59,3.84 -4.85,7.27 -6.79,10.31 -1.94,3.02 -4.53,6.21 -7.76,9.54 -23.29,28.64 -48.19,37.29 -74.7,25.93 -11.65,-5.08 -19.73,-13.25 -24.26,-24.5 -4.52,-11.24 -3.55,-24.72 2.91,-40.44 12.29,-30.64 26.84,-58.57 43.66,-83.78 32.98,-46.4 69.53,-87.79 109.62,-124.19 40.1,-36.39 85.38,-65.9 135.82,-88.5 45.27,-20.12 83.11,-26.73 113.51,-19.83 30.39,6.92 54.97,21.95 73.73,45.12 18.75,23.18 32.5,51.7 41.23,85.58 8.73,33.89 14.39,68 16.98,102.32 3.23,51.65 3.07,103.75 -0.49,156.31 -3.56,52.55 -12.45,106.34 -26.68,161.37 -3.23,9.79 -6.14,19.51 -8.73,29.17 -2.59,9.64 -6.14,19.52 -10.67,29.61 -7.12,16.52 -16.65,30.36 -28.62,41.52 -11.96,11.15 -25.71,18.21 -41.23,21.13 -34.28,6.6 -57.56,-5.83 -69.85,-37.28 -3.23,-8.31 -5.98,-16.4 -8.25,-24.29 -2.26,-7.89 -5.01,-16.96 -8.24,-27.21zm-11.64 -134.1c-12.94,-1.56 -26.68,-0.49 -41.23,3.18 -14.56,3.67 -28.78,8.88 -42.69,15.64 -13.91,6.77 -26.84,15.07 -38.81,24.95 -11.96,9.86 -21.5,20.15 -28.61,30.83 -10.35,15.33 -15.69,29.81 -16.01,43.47 -0.32,13.65 3.39,27.03 11.16,40.11 16.16,-9.54 31.04,-20.4 44.62,-32.58 13.58,-12.19 26.52,-25.19 38.81,-39 12.28,-13.83 24.25,-28.07 35.89,-42.71 11.64,-14.65 23.93,-29.28 36.87,-43.89z"/>
 </g>
</svg>
